<svg width="30" height="30" viewBox="0 0 30 30" fill="none" xmlns="http://www.w3.org/2000/svg">
<rect width="30" height="30" rx="4" fill="#EBFFED"/>
<path d="M18.9392 13.0888H12.8066C12.5683 13.0888 12.375 12.9118 12.375 12.6933C12.375 12.4749 12.5682 12.2979 12.8066 12.2979H18.9389C19.1773 12.2979 19.3706 12.4749 19.3706 12.6933C19.3706 12.9118 19.1773 13.0888 18.9391 13.0888H18.9392Z" fill="#58D365" fill-opacity="0.7"/>
<path d="M18.9392 15.9618H12.8066C12.5683 15.9618 12.375 15.7848 12.375 15.5664C12.375 15.348 12.5682 15.1709 12.8066 15.1709H18.9389C19.1773 15.1709 19.3706 15.3479 19.3706 15.5664C19.3706 15.7848 19.1773 15.9618 18.9391 15.9618H18.9392Z" fill="#58D365" fill-opacity="0.7"/>
<path d="M12.8701 18.6496C12.6318 18.6496 12.4385 18.4726 12.4385 18.2541C12.4385 18.0357 12.6317 17.8586 12.8701 17.8586C15.1798 17.8586 17.1309 16.7554 17.1309 15.4496C17.1309 14.1437 15.1797 13.0404 12.8701 13.0404C12.6318 13.0404 12.4385 12.8634 12.4385 12.645C12.4385 12.4266 12.6317 12.2495 12.8701 12.2495C15.7436 12.2495 17.9943 13.6552 17.9943 15.4495C17.9943 17.2438 15.7436 18.6495 12.8701 18.6495V18.6496Z" fill="#58D365" fill-opacity="0.7"/>
<path d="M17.4819 23.3009C17.3669 23.3009 17.2523 23.2591 17.1672 23.1764L12.6093 18.7336C12.446 18.5743 12.4545 18.3241 12.6282 18.1746C12.8019 18.0251 13.0749 18.0329 13.2383 18.1919L17.7962 22.6347C17.9595 22.7939 17.951 23.0442 17.7774 23.1937C17.694 23.2654 17.5878 23.3009 17.4817 23.3009L17.4819 23.3009Z" fill="#58D365" fill-opacity="0.7"/>
<path d="M4.03157 15.2112H6.11537V26.3248C6.11537 26.7138 6.421 27.0194 6.80997 27.0194H24.8695C25.2585 27.0194 25.5641 26.7138 25.5641 26.3248V15.2112H27.6479C28.2592 15.2112 28.5648 14.461 28.1479 14.0166L16.3398 2.20844C16.0618 1.93052 15.6174 1.93052 15.3672 2.20844L3.53176 14.0166C3.11489 14.461 3.42051 15.2112 4.03177 15.2112H4.03157ZM15.8397 3.68089L25.9809 13.822H24.8696C24.4807 13.822 24.175 14.1277 24.175 14.5166V25.6302H7.50466V14.5166C7.50466 14.1277 7.19903 13.822 6.81007 13.822H5.69881L15.8397 3.68089Z" fill="#58D365" fill-opacity="0.7"/>
</svg>
