<svg width="474" height="199" viewBox="0 0 474 199" fill="none" xmlns="http://www.w3.org/2000/svg">
<path d="M10.2346 198.231L0.222923 198.243L0.0055858 17.032C0.00226998 14.2673 2.24077 12.0235 5.00542 12.0201C7.77006 12.0168 10.0139 14.2553 10.0173 17.02L10.2346 198.231Z" fill="url(#paint0_linear_427_421)"/>
<path d="M25.2521 198.243L15.2404 198.225L15.5285 40.0405C15.5335 37.2758 17.7788 35.0387 20.5434 35.0438C23.3081 35.0488 25.5452 37.294 25.5401 40.0587L25.2521 198.243Z" fill="url(#paint1_linear_427_421)"/>
<path d="M60.8278 198.231L50.8161 198.243L50.5844 5.01798C50.581 2.25333 52.8195 0.00946139 55.5842 0.00614559C58.3488 0.00282978 60.5927 2.24132 60.596 5.00598L60.8278 198.231Z" fill="url(#paint2_linear_427_421)"/>
<path d="M75.8453 198.243L65.8336 198.225L66.1107 46.0475C66.1157 43.2828 68.361 41.0457 71.1256 41.0507C73.8903 41.0558 76.1274 43.301 76.1224 46.0657L75.8453 198.243Z" fill="url(#paint3_linear_427_421)"/>
<path d="M111.346 198.231L101.334 198.243L101.167 59.081C101.164 56.3163 103.402 54.0725 106.167 54.0692C108.932 54.0658 111.175 56.3043 111.179 59.069L111.346 198.231Z" fill="url(#paint4_linear_427_421)"/>
<path d="M126.363 198.243L116.352 198.225L116.665 26.0246C116.67 23.26 118.915 21.0229 121.68 21.0279C124.445 21.033 126.682 23.2782 126.677 26.0429L126.363 198.243Z" fill="url(#paint5_linear_427_421)"/>
<path d="M161.862 198.231L151.85 198.243L151.721 91.1183C151.718 88.3537 153.957 86.1098 156.721 86.1065C159.486 86.1032 161.73 88.3417 161.733 91.1063L161.862 198.231Z" fill="url(#paint6_linear_427_421)"/>
<path d="M176.879 198.243L166.867 198.225L167.112 64.0689C167.117 61.3043 169.362 59.0672 172.127 59.0722C174.891 59.0773 177.128 61.3225 177.123 64.0872L176.879 198.243Z" fill="url(#paint7_linear_427_421)"/>
<path d="M212.34 198.231L202.329 198.243L202.168 64.0868C202.164 61.3222 204.403 59.0783 207.168 59.075C209.932 59.0717 212.176 61.3102 212.179 64.0748L212.34 198.231Z" fill="url(#paint8_linear_427_421)"/>
<path d="M226.357 198.243L216.345 198.225L216.611 52.0549C216.616 49.2903 218.862 47.0532 221.626 47.0582C224.391 47.0633 226.628 49.3085 226.623 52.0732L226.357 198.243Z" fill="url(#paint9_linear_427_421)"/>
<path d="M261.766 198.231L251.755 198.243L251.667 125.158C251.664 122.393 253.902 120.149 256.667 120.146C259.431 120.142 261.675 122.381 261.679 125.145L261.766 198.231Z" fill="url(#paint10_linear_427_421)"/>
<path d="M275.783 198.243L265.771 198.225L265.999 73.0789C266.004 70.3143 268.249 68.0772 271.014 68.0822C273.778 68.0873 276.015 70.3325 276.01 73.0972L275.783 198.243Z" fill="url(#paint11_linear_427_421)"/>
<path d="M311.283 198.231L301.271 198.243L301.054 17.032C301.051 14.2673 303.289 12.0235 306.054 12.0201C308.818 12.0168 311.062 14.2553 311.066 17.02L311.283 198.231Z" fill="url(#paint12_linear_427_421)"/>
<path d="M325.299 198.243L315.288 198.225L315.576 40.0405C315.581 37.2758 317.826 35.0387 320.591 35.0438C323.355 35.0488 325.592 37.294 325.587 40.0587L325.299 198.243Z" fill="url(#paint13_linear_427_421)"/>
<path d="M360.81 198.231L350.799 198.243L350.632 59.081C350.629 56.3163 352.867 54.0725 355.632 54.0692C358.396 54.0658 360.64 56.3043 360.643 59.069L360.81 198.231Z" fill="url(#paint14_linear_427_421)"/>
<path d="M374.827 198.243L364.815 198.225L365.05 69.0743C365.055 66.3096 367.301 64.0725 370.065 64.0776C372.83 64.0826 375.067 66.3279 375.062 69.0925L374.827 198.243Z" fill="url(#paint15_linear_427_421)"/>
<path d="M410.285 198.231L400.273 198.243L400.107 59.081C400.103 56.3163 402.342 54.0725 405.106 54.0692C407.871 54.0658 410.115 56.3043 410.118 59.069L410.285 198.231Z" fill="url(#paint16_linear_427_421)"/>
<path d="M424.301 198.243L414.29 198.225L414.534 64.0684C414.539 61.3038 416.784 59.0667 419.549 59.0717C422.314 59.0768 424.551 61.322 424.546 64.0867L424.301 198.243Z" fill="url(#paint17_linear_427_421)"/>
<path d="M459.73 198.231L449.719 198.243L449.59 91.1178C449.587 88.3532 451.825 86.1093 454.59 86.106C457.355 86.1027 459.599 88.3412 459.602 91.1058L459.73 198.231Z" fill="url(#paint18_linear_427_421)"/>
<path d="M473.747 198.243L463.735 198.225L463.979 64.0684C463.984 61.3038 466.23 59.0667 468.994 59.0717C471.759 59.0768 473.996 61.322 473.991 64.0867L473.747 198.243Z" fill="url(#paint19_linear_427_421)"/>
<defs>
<linearGradient id="paint0_linear_427_421" x1="5.22876" y1="198.237" x2="5.00542" y2="12.0201" gradientUnits="userSpaceOnUse">
<stop stop-color="#817AF3"/>
<stop offset="0.479167" stop-color="#74B0FA"/>
<stop offset="1" stop-color="#79D0F1"/>
</linearGradient>
<linearGradient id="paint1_linear_427_421" x1="20.2463" y1="198.234" x2="20.5434" y2="35.0438" gradientUnits="userSpaceOnUse">
<stop stop-color="#46A46C"/>
<stop offset="0.479167" stop-color="#51CC5D"/>
<stop offset="1" stop-color="#57DA65"/>
</linearGradient>
<linearGradient id="paint2_linear_427_421" x1="55.8219" y1="198.237" x2="55.5842" y2="0.00614559" gradientUnits="userSpaceOnUse">
<stop stop-color="#817AF3"/>
<stop offset="0.479167" stop-color="#74B0FA"/>
<stop offset="1" stop-color="#79D0F1"/>
</linearGradient>
<linearGradient id="paint3_linear_427_421" x1="70.8395" y1="198.234" x2="71.1256" y2="41.0507" gradientUnits="userSpaceOnUse">
<stop stop-color="#46A46C"/>
<stop offset="0.479167" stop-color="#51CC5D"/>
<stop offset="1" stop-color="#57DA65"/>
</linearGradient>
<linearGradient id="paint4_linear_427_421" x1="106.34" y1="198.237" x2="106.167" y2="54.0692" gradientUnits="userSpaceOnUse">
<stop stop-color="#817AF3"/>
<stop offset="0.479167" stop-color="#74B0FA"/>
<stop offset="1" stop-color="#79D0F1"/>
</linearGradient>
<linearGradient id="paint5_linear_427_421" x1="121.357" y1="198.234" x2="121.68" y2="21.0279" gradientUnits="userSpaceOnUse">
<stop stop-color="#46A46C"/>
<stop offset="0.479167" stop-color="#51CC5D"/>
<stop offset="1" stop-color="#57DA65"/>
</linearGradient>
<linearGradient id="paint6_linear_427_421" x1="156.856" y1="198.237" x2="156.721" y2="86.1065" gradientUnits="userSpaceOnUse">
<stop stop-color="#817AF3"/>
<stop offset="0.479167" stop-color="#74B0FA"/>
<stop offset="1" stop-color="#79D0F1"/>
</linearGradient>
<linearGradient id="paint7_linear_427_421" x1="171.873" y1="198.234" x2="172.127" y2="59.0722" gradientUnits="userSpaceOnUse">
<stop stop-color="#46A46C"/>
<stop offset="0.479167" stop-color="#51CC5D"/>
<stop offset="1" stop-color="#57DA65"/>
</linearGradient>
<linearGradient id="paint8_linear_427_421" x1="207.335" y1="198.237" x2="207.168" y2="59.075" gradientUnits="userSpaceOnUse">
<stop stop-color="#817AF3"/>
<stop offset="0.479167" stop-color="#74B0FA"/>
<stop offset="1" stop-color="#79D0F1"/>
</linearGradient>
<linearGradient id="paint9_linear_427_421" x1="221.351" y1="198.234" x2="221.626" y2="47.0582" gradientUnits="userSpaceOnUse">
<stop stop-color="#46A46C"/>
<stop offset="0.479167" stop-color="#51CC5D"/>
<stop offset="1" stop-color="#57DA65"/>
</linearGradient>
<linearGradient id="paint10_linear_427_421" x1="256.76" y1="198.237" x2="256.667" y2="120.146" gradientUnits="userSpaceOnUse">
<stop stop-color="#817AF3"/>
<stop offset="0.479167" stop-color="#74B0FA"/>
<stop offset="1" stop-color="#79D0F1"/>
</linearGradient>
<linearGradient id="paint11_linear_427_421" x1="270.777" y1="198.234" x2="271.014" y2="68.0822" gradientUnits="userSpaceOnUse">
<stop stop-color="#46A46C"/>
<stop offset="0.479167" stop-color="#51CC5D"/>
<stop offset="1" stop-color="#57DA65"/>
</linearGradient>
<linearGradient id="paint12_linear_427_421" x1="306.277" y1="198.237" x2="306.054" y2="12.0201" gradientUnits="userSpaceOnUse">
<stop stop-color="#817AF3"/>
<stop offset="0.479167" stop-color="#74B0FA"/>
<stop offset="1" stop-color="#79D0F1"/>
</linearGradient>
<linearGradient id="paint13_linear_427_421" x1="320.293" y1="198.234" x2="320.591" y2="35.0438" gradientUnits="userSpaceOnUse">
<stop stop-color="#46A46C"/>
<stop offset="0.479167" stop-color="#51CC5D"/>
<stop offset="1" stop-color="#57DA65"/>
</linearGradient>
<linearGradient id="paint14_linear_427_421" x1="355.805" y1="198.237" x2="355.632" y2="54.0692" gradientUnits="userSpaceOnUse">
<stop stop-color="#817AF3"/>
<stop offset="0.479167" stop-color="#74B0FA"/>
<stop offset="1" stop-color="#79D0F1"/>
</linearGradient>
<linearGradient id="paint15_linear_427_421" x1="369.821" y1="198.234" x2="370.065" y2="64.0776" gradientUnits="userSpaceOnUse">
<stop stop-color="#46A46C"/>
<stop offset="0.479167" stop-color="#51CC5D"/>
<stop offset="1" stop-color="#57DA65"/>
</linearGradient>
<linearGradient id="paint16_linear_427_421" x1="405.279" y1="198.237" x2="405.106" y2="54.0692" gradientUnits="userSpaceOnUse">
<stop stop-color="#817AF3"/>
<stop offset="0.479167" stop-color="#74B0FA"/>
<stop offset="1" stop-color="#79D0F1"/>
</linearGradient>
<linearGradient id="paint17_linear_427_421" x1="419.296" y1="198.234" x2="419.549" y2="59.0717" gradientUnits="userSpaceOnUse">
<stop stop-color="#46A46C"/>
<stop offset="0.479167" stop-color="#51CC5D"/>
<stop offset="1" stop-color="#57DA65"/>
</linearGradient>
<linearGradient id="paint18_linear_427_421" x1="454.725" y1="198.237" x2="454.59" y2="86.106" gradientUnits="userSpaceOnUse">
<stop stop-color="#817AF3"/>
<stop offset="0.479167" stop-color="#74B0FA"/>
<stop offset="1" stop-color="#79D0F1"/>
</linearGradient>
<linearGradient id="paint19_linear_427_421" x1="468.741" y1="198.234" x2="468.994" y2="59.0717" gradientUnits="userSpaceOnUse">
<stop stop-color="#46A46C"/>
<stop offset="0.479167" stop-color="#51CC5D"/>
<stop offset="1" stop-color="#57DA65"/>
</linearGradient>
</defs>
</svg>
