<svg width="83" height="83" viewBox="0 0 83 83" fill="none" xmlns="http://www.w3.org/2000/svg">
<rect x="0.5" y="0.5" width="82" height="82" rx="41" fill="white" stroke="#9D9D9D" stroke-linecap="round" stroke-linejoin="round" stroke-dasharray="5 5"/>
<path d="M49.5505 43.7145C54.6312 40.8831 58.0741 35.4634 58.0757 29.2326C58.0734 20.0778 50.6554 12.6602 41.5023 12.6602C32.3466 12.6602 24.9278 20.0781 24.9278 29.2336C24.9278 35.4638 28.3691 40.8839 33.4514 43.7155C23.1921 47.0942 15.7832 56.7499 15.7812 68.1427H19.2118C19.2334 55.8305 29.1907 45.8734 41.5009 45.8516C53.8111 45.8733 63.7682 55.8305 63.789 68.1427H67.2203C67.2183 56.749 59.8093 47.094 49.5501 43.7145H49.5505ZM28.3552 29.2336C28.3695 21.974 34.2421 16.1021 41.5026 16.0882C48.7607 16.1017 54.6341 21.9743 54.645 29.2336C54.6338 36.4917 48.7608 42.3651 41.5026 42.377C34.2426 42.3642 28.37 36.4913 28.3552 29.2336Z" fill="#777777"/>
</svg>
