<svg width="26" height="24" viewBox="0 0 26 24" fill="none" xmlns="http://www.w3.org/2000/svg">
<mask id="path-1-outside-1_424_142" maskUnits="userSpaceOnUse" x="-0.900611" y="-0.900122" width="27.0066" height="25.0061" fill="black">
<rect fill="white" x="-0.900611" y="-0.900122" width="27.0066" height="25.0061"/>
<path d="M15.8848 12.3175H9.32001C9.12695 12.3175 8.97009 12.4744 8.97009 12.6675V23.5498C8.97009 23.7429 9.12694 23.8997 9.32001 23.8997H15.8843C16.0774 23.8997 16.2342 23.7429 16.2342 23.5498L16.2344 12.6675C16.2344 12.4744 16.0776 12.3175 15.8845 12.3175H15.8848ZM9.67052 17.735V16.6198H15.5354V17.7357H9.67052V17.735ZM15.5349 18.4351V19.5509H9.67052V18.4351H15.5349ZM9.67052 15.9199V14.804H15.5354V15.9199H9.67052ZM9.67052 20.251H15.5354V21.3669H9.67052V20.251ZM15.5349 13.0174V14.1042L9.67052 14.104V13.0172L15.5349 13.0174ZM9.67052 23.1993V22.0665H15.5354L15.5352 23.1993H9.67052ZM24.7558 6.87601H18.1915C17.9984 6.87601 17.8416 7.03286 17.8416 7.22593L17.8414 23.5492C17.8414 23.7423 17.9982 23.8991 18.1913 23.8991H24.7556C24.9487 23.8991 25.1055 23.7423 25.1055 23.5492L25.1057 7.22593C25.1057 7.03287 24.9495 6.87601 24.7558 6.87601ZM18.5415 15.9189V14.803H24.4064V15.9189H18.5415ZM24.4064 16.6187V17.7346H18.5415V16.6187H24.4064ZM18.5415 14.1036V12.9877H24.4064V14.1036H18.5415ZM18.5415 12.2879V11.172H24.4064V12.2879H18.5415ZM18.5415 18.4345H24.4064V19.5504H18.5415V18.4345ZM24.4064 10.4718H18.5415V9.3559H24.4064V10.4718ZM18.5415 20.2505H24.4064V21.3664H18.5415V20.2505ZM24.4064 7.57556V8.65583H18.5415V7.57556H24.4064ZM18.5415 23.1989V22.0661H24.4064V23.1989H18.5415ZM7.01386 17.7579H0.449557C0.256492 17.7579 0.0996337 17.9148 0.0996337 18.1079V23.5493C0.0996337 23.7424 0.256487 23.8992 0.449557 23.8992H7.01386C7.20693 23.8992 7.36378 23.7424 7.36378 23.5493V18.1084C7.36399 17.9151 7.20693 17.7583 7.01386 17.7583V17.7579ZM0.799542 20.2715H6.6644V21.3849H0.799542V20.2715ZM6.6644 18.458V19.5715H0.799542V18.458H6.6644ZM0.799542 23.199V22.0856H6.6644V23.199H0.799542ZM13.7664 8.77046L21.7369 0.799967H18.0759C17.8829 0.799967 17.726 0.643115 17.726 0.450045C17.726 0.256975 17.8829 0.100122 18.0759 0.100122H22.582C22.7751 0.100122 22.9319 0.256975 22.9319 0.450045V4.9561C22.9319 5.14917 22.7751 5.30603 22.582 5.30603C22.3889 5.30603 22.2321 5.14917 22.2321 4.9561V1.29517L14.0142 9.51304C13.8777 9.64955 13.6561 9.64955 13.519 9.51304L10.918 6.91206L2.87203 14.9586C2.80387 15.0267 2.71395 15.0613 2.62464 15.0613C2.53533 15.0613 2.44561 15.027 2.37726 14.9586C2.24075 14.8221 2.24075 14.6005 2.37726 14.464L10.6712 6.17011C10.8077 6.0336 11.0292 6.0336 11.1664 6.17011L13.7664 8.77046Z"/>
</mask>
<path d="M15.8848 12.3175H9.32001C9.12695 12.3175 8.97009 12.4744 8.97009 12.6675V23.5498C8.97009 23.7429 9.12694 23.8997 9.32001 23.8997H15.8843C16.0774 23.8997 16.2342 23.7429 16.2342 23.5498L16.2344 12.6675C16.2344 12.4744 16.0776 12.3175 15.8845 12.3175H15.8848ZM9.67052 17.735V16.6198H15.5354V17.7357H9.67052V17.735ZM15.5349 18.4351V19.5509H9.67052V18.4351H15.5349ZM9.67052 15.9199V14.804H15.5354V15.9199H9.67052ZM9.67052 20.251H15.5354V21.3669H9.67052V20.251ZM15.5349 13.0174V14.1042L9.67052 14.104V13.0172L15.5349 13.0174ZM9.67052 23.1993V22.0665H15.5354L15.5352 23.1993H9.67052ZM24.7558 6.87601H18.1915C17.9984 6.87601 17.8416 7.03286 17.8416 7.22593L17.8414 23.5492C17.8414 23.7423 17.9982 23.8991 18.1913 23.8991H24.7556C24.9487 23.8991 25.1055 23.7423 25.1055 23.5492L25.1057 7.22593C25.1057 7.03287 24.9495 6.87601 24.7558 6.87601ZM18.5415 15.9189V14.803H24.4064V15.9189H18.5415ZM24.4064 16.6187V17.7346H18.5415V16.6187H24.4064ZM18.5415 14.1036V12.9877H24.4064V14.1036H18.5415ZM18.5415 12.2879V11.172H24.4064V12.2879H18.5415ZM18.5415 18.4345H24.4064V19.5504H18.5415V18.4345ZM24.4064 10.4718H18.5415V9.3559H24.4064V10.4718ZM18.5415 20.2505H24.4064V21.3664H18.5415V20.2505ZM24.4064 7.57556V8.65583H18.5415V7.57556H24.4064ZM18.5415 23.1989V22.0661H24.4064V23.1989H18.5415ZM7.01386 17.7579H0.449557C0.256492 17.7579 0.0996337 17.9148 0.0996337 18.1079V23.5493C0.0996337 23.7424 0.256487 23.8992 0.449557 23.8992H7.01386C7.20693 23.8992 7.36378 23.7424 7.36378 23.5493V18.1084C7.36399 17.9151 7.20693 17.7583 7.01386 17.7583V17.7579ZM0.799542 20.2715H6.6644V21.3849H0.799542V20.2715ZM6.6644 18.458V19.5715H0.799542V18.458H6.6644ZM0.799542 23.199V22.0856H6.6644V23.199H0.799542ZM13.7664 8.77046L21.7369 0.799967H18.0759C17.8829 0.799967 17.726 0.643115 17.726 0.450045C17.726 0.256975 17.8829 0.100122 18.0759 0.100122H22.582C22.7751 0.100122 22.9319 0.256975 22.9319 0.450045V4.9561C22.9319 5.14917 22.7751 5.30603 22.582 5.30603C22.3889 5.30603 22.2321 5.14917 22.2321 4.9561V1.29517L14.0142 9.51304C13.8777 9.64955 13.6561 9.64955 13.519 9.51304L10.918 6.91206L2.87203 14.9586C2.80387 15.0267 2.71395 15.0613 2.62464 15.0613C2.53533 15.0613 2.44561 15.027 2.37726 14.9586C2.24075 14.8221 2.24075 14.6005 2.37726 14.464L10.6712 6.17011C10.8077 6.0336 11.0292 6.0336 11.1664 6.17011L13.7664 8.77046Z" fill="#817AF3"/>
<path d="M15.8848 12.3175H9.32001C9.12695 12.3175 8.97009 12.4744 8.97009 12.6675V23.5498C8.97009 23.7429 9.12694 23.8997 9.32001 23.8997H15.8843C16.0774 23.8997 16.2342 23.7429 16.2342 23.5498L16.2344 12.6675C16.2344 12.4744 16.0776 12.3175 15.8845 12.3175H15.8848ZM9.67052 17.735V16.6198H15.5354V17.7357H9.67052V17.735ZM15.5349 18.4351V19.5509H9.67052V18.4351H15.5349ZM9.67052 15.9199V14.804H15.5354V15.9199H9.67052ZM9.67052 20.251H15.5354V21.3669H9.67052V20.251ZM15.5349 13.0174V14.1042L9.67052 14.104V13.0172L15.5349 13.0174ZM9.67052 23.1993V22.0665H15.5354L15.5352 23.1993H9.67052ZM24.7558 6.87601H18.1915C17.9984 6.87601 17.8416 7.03286 17.8416 7.22593L17.8414 23.5492C17.8414 23.7423 17.9982 23.8991 18.1913 23.8991H24.7556C24.9487 23.8991 25.1055 23.7423 25.1055 23.5492L25.1057 7.22593C25.1057 7.03287 24.9495 6.87601 24.7558 6.87601ZM18.5415 15.9189V14.803H24.4064V15.9189H18.5415ZM24.4064 16.6187V17.7346H18.5415V16.6187H24.4064ZM18.5415 14.1036V12.9877H24.4064V14.1036H18.5415ZM18.5415 12.2879V11.172H24.4064V12.2879H18.5415ZM18.5415 18.4345H24.4064V19.5504H18.5415V18.4345ZM24.4064 10.4718H18.5415V9.3559H24.4064V10.4718ZM18.5415 20.2505H24.4064V21.3664H18.5415V20.2505ZM24.4064 7.57556V8.65583H18.5415V7.57556H24.4064ZM18.5415 23.1989V22.0661H24.4064V23.1989H18.5415ZM7.01386 17.7579H0.449557C0.256492 17.7579 0.0996337 17.9148 0.0996337 18.1079V23.5493C0.0996337 23.7424 0.256487 23.8992 0.449557 23.8992H7.01386C7.20693 23.8992 7.36378 23.7424 7.36378 23.5493V18.1084C7.36399 17.9151 7.20693 17.7583 7.01386 17.7583V17.7579ZM0.799542 20.2715H6.6644V21.3849H0.799542V20.2715ZM6.6644 18.458V19.5715H0.799542V18.458H6.6644ZM0.799542 23.199V22.0856H6.6644V23.199H0.799542ZM13.7664 8.77046L21.7369 0.799967H18.0759C17.8829 0.799967 17.726 0.643115 17.726 0.450045C17.726 0.256975 17.8829 0.100122 18.0759 0.100122H22.582C22.7751 0.100122 22.9319 0.256975 22.9319 0.450045V4.9561C22.9319 5.14917 22.7751 5.30603 22.582 5.30603C22.3889 5.30603 22.2321 5.14917 22.2321 4.9561V1.29517L14.0142 9.51304C13.8777 9.64955 13.6561 9.64955 13.519 9.51304L10.918 6.91206L2.87203 14.9586C2.80387 15.0267 2.71395 15.0613 2.62464 15.0613C2.53533 15.0613 2.44561 15.027 2.37726 14.9586C2.24075 14.8221 2.24075 14.6005 2.37726 14.464L10.6712 6.17011C10.8077 6.0336 11.0292 6.0336 11.1664 6.17011L13.7664 8.77046Z" stroke="#817AF3" stroke-width="0.2" mask="url(#path-1-outside-1_424_142)"/>
</svg>
