<svg width="22" height="22" viewBox="0 0 22 22" fill="none" xmlns="http://www.w3.org/2000/svg">
<path d="M10.9997 0C4.93464 0 0 4.93464 0 10.9997C0 13.7115 0.988254 16.1951 2.62102 18.1146C2.64193 18.1469 2.66591 18.1774 2.69391 18.2054C2.70024 18.2117 2.70734 18.2157 2.71367 18.2217C4.73182 20.5341 7.69693 21.9992 10.9998 21.9992C14.3026 21.9992 17.2676 20.5341 19.2859 18.2217C19.2922 18.2159 19.2997 18.2115 19.3057 18.2054C19.3337 18.1774 19.3578 18.1465 19.3785 18.1146C21.0113 16.1949 21.9996 13.7112 21.9996 10.9997C21.9996 4.93464 17.0648 0 10.9997 0ZM10.9997 20.8994C8.18839 20.8994 5.64913 19.7198 3.84547 17.8316L4.59895 17.0782C5.3269 16.3504 6.29443 15.9495 7.3232 15.9495H14.6763C15.705 15.9495 16.6725 16.3504 17.4003 17.078L18.1538 17.8314C16.3503 19.7195 13.8111 20.8994 10.9997 20.8994ZM18.8714 16.9936L18.1781 16.3004C17.2426 15.3649 15.9991 14.8494 14.6763 14.8494H7.3232C6.00038 14.8494 4.75703 15.3649 3.82151 16.3004L3.12828 16.9936C1.85708 15.3286 1.09997 13.2512 1.09997 10.9997C1.09997 5.54115 5.5408 1.10002 10.9997 1.10002C16.4583 1.10002 20.8994 5.54085 20.8994 10.9997C20.8994 13.2513 20.1424 15.3287 18.8714 16.9936ZM10.9997 4.94991C8.57377 4.94991 6.59972 6.92372 6.59972 9.34989C6.59972 11.7758 8.57353 13.7499 10.9997 13.7499C13.4256 13.7499 15.3997 11.7761 15.3997 9.34989C15.3997 6.92372 13.4257 4.94991 10.9997 4.94991ZM10.9997 12.6497C9.18008 12.6497 7.69984 11.1694 7.69984 9.34984C7.69984 7.53022 9.18013 6.04998 10.9997 6.04998C12.8193 6.04998 14.2996 7.53027 14.2996 9.34984C14.2996 11.1695 12.8193 12.6497 10.9997 12.6497Z" fill="#24B8F1"/>
</svg>
