<svg width="26" height="26" viewBox="0 0 26 26" fill="none" xmlns="http://www.w3.org/2000/svg">
<path fill-rule="evenodd" clip-rule="evenodd" d="M0.241214 14.2947C0.178546 14.1146 0.27377 13.9176 0.453867 13.8538C8.93715 10.9007 16.3644 6.55705 22.5483 0.947939L20.7899 1.04354C20.6004 1.05332 20.4363 0.907856 20.4259 0.716468C20.4156 0.526588 20.5616 0.362867 20.7522 0.353077L23.4785 0.204787H23.515C23.6051 0.209492 23.691 0.249764 23.7521 0.316946C23.8221 0.393348 23.8541 0.497041 23.8389 0.599979L23.4454 3.30197C23.4203 3.47397 23.2726 3.59724 23.104 3.59724C23.0874 3.59724 23.0709 3.59592 23.0538 3.5931C22.8648 3.56524 22.7342 3.3908 22.7615 3.20223L23.0156 1.45682C16.7623 7.13001 9.2546 11.5222 0.680742 14.5072C0.643104 14.5209 0.604903 14.5266 0.566888 14.5266C0.424244 14.5266 0.290816 14.4377 0.240949 14.2949L0.241214 14.2947ZM25.1038 25.0866V7.22103H22.4812V25.0866H25.1038ZM25.4495 6.52922H22.1359C21.9451 6.52922 21.7902 6.68429 21.7902 6.87436V25.4317C21.7902 25.6231 21.9447 25.7768 22.1359 25.7768H25.4495C25.6405 25.7768 25.7952 25.6229 25.7952 25.4317V6.87436C25.7952 6.68448 25.6403 6.52922 25.4495 6.52922ZM17.9143 25.0866V10.9768H15.2917V25.0866H17.9143ZM18.26 10.285H14.9462C14.7554 10.285 14.6006 10.4405 14.6006 10.6303V25.4319C14.6006 25.6233 14.7554 25.777 14.9462 25.777H18.2598C18.4507 25.777 18.6055 25.6231 18.6055 25.4319L18.6053 10.6303C18.6057 10.4405 18.4508 10.285 18.26 10.285H18.26ZM10.7248 25.0866V14.0129H8.10224V25.0861H10.7248V25.0866ZM11.0705 13.323H7.75696C7.56614 13.323 7.41126 13.4769 7.41126 13.6681V25.4317C7.41126 25.6231 7.56613 25.7768 7.75696 25.7768H11.0705C11.2614 25.7768 11.4162 25.6229 11.4162 25.4317V13.6681C11.4162 13.4767 11.2614 13.323 11.0705 13.323ZM3.53535 25.0866H0.913141V18.4874H3.53574V25.0866H3.53535ZM3.88105 17.7966H0.56747C0.376463 17.7966 0.22177 17.9505 0.22177 18.1419V25.4319C0.22177 25.6233 0.37627 25.777 0.56747 25.777H3.88105C4.07187 25.777 4.22675 25.6231 4.22675 25.4319V18.1419C4.22675 17.9505 4.07188 17.7968 3.88105 17.7968V17.7966Z" fill="#DBA362" fill-opacity="0.8"/>
<path d="M0.419711 13.7573L0.420237 13.7572C8.79359 10.8424 16.1351 6.57146 22.2651 1.06578L20.7954 1.14568L20.7951 1.1457C20.5498 1.15836 20.3372 0.970219 20.3238 0.722036L0.419711 13.7573ZM0.419711 13.7573C0.210812 13.8313 0.0898486 14.0442 0.125943 14.2559M0.419711 13.7573L0.241214 14.2947M23.4785 0.102342V0.102494H23.515H23.5203L23.5203 0.102633C23.6372 0.10873 23.7482 0.160801 23.8277 0.247964M23.4785 0.102342L23.9401 0.614721C23.9598 0.481355 23.9183 0.346951 23.8277 0.247964M23.4785 0.102342L23.4729 0.102645M23.4785 0.102342L23.4729 0.102645M23.8277 0.247964C23.8276 0.247923 23.8276 0.247881 23.8275 0.24784L23.7521 0.316946L23.8278 0.248079C23.8277 0.248041 23.8277 0.248002 23.8277 0.247964ZM0.715014 14.6036C9.20454 11.6479 16.6518 7.31382 22.8734 1.72295L22.6603 3.1875L22.6603 3.18758C22.6249 3.43202 22.7941 3.65774 23.038 3.69417C23.0603 3.6978 23.0822 3.69953 23.104 3.69953C23.3225 3.69953 23.5141 3.53993 23.5466 3.31671L23.9401 0.614962L0.241214 14.2947M0.715014 14.6036C0.714801 14.6036 0.714588 14.6037 0.714375 14.6038L0.680742 14.5072L0.715816 14.6033C0.715548 14.6034 0.715281 14.6035 0.715014 14.6036ZM0.715014 14.6036C0.664916 14.6217 0.614915 14.6289 0.566888 14.6289C0.382141 14.6289 0.209031 14.5138 0.144372 14.3286L0.120504 14.2603L0.125943 14.2559M0.125943 14.2559C0.130073 14.2801 0.136258 14.3043 0.144602 14.3283L0.240874 14.2948L0.241214 14.2947M0.125943 14.2559L0.177049 14.215L0.177314 14.2148L0.241214 14.2947M23.4729 0.102645L20.747 0.250918L23.4729 0.102645ZM18.7076 10.6305C18.7081 10.384 18.5073 10.1827 18.26 10.1827H14.9462C14.6989 10.1827 14.4983 10.384 14.4983 10.6303V25.4319C14.4983 25.6801 14.6993 25.8793 14.9462 25.8793H18.2598C18.5069 25.8793 18.7078 25.6799 18.7078 25.4319L18.7076 10.6305ZM18.7076 10.6305L18.6053 10.6303L18.7076 10.6303V10.6305ZM3.98335 17.7062V17.6943H3.88105H0.56747C0.320186 17.6943 0.119476 17.8938 0.119476 18.1419V25.4319C0.119476 25.68 0.320028 25.8793 0.56747 25.8793H3.88105C4.12808 25.8793 4.32905 25.6799 4.32905 25.4319V18.1419C4.32905 17.9291 4.18123 17.7522 3.98335 17.7062ZM20.7468 0.250927C20.4994 0.263729 20.3104 0.47601 20.3238 0.721993L20.7468 0.250927ZM22.5835 7.32332H25.0015V24.9843H22.5835V7.32332ZM25.4495 6.42693H22.1359C21.8887 6.42693 21.6879 6.62772 21.6879 6.87436V25.4317C21.6879 25.6798 21.8885 25.8791 22.1359 25.8791H25.4495C25.6968 25.8791 25.8975 25.6796 25.8975 25.4317V6.87436C25.8975 6.62795 25.6968 6.42693 25.4495 6.42693ZM15.394 11.0791H17.812V24.9843H15.394V11.0791ZM8.20454 14.1152H10.6225V24.9838H8.20454V14.1152ZM11.0705 13.2207H7.75696C7.50993 13.2207 7.30896 13.4201 7.30896 13.6681V25.4317C7.30896 25.6799 7.50996 25.8791 7.75696 25.8791H11.0705C11.3176 25.8791 11.5185 25.6797 11.5185 25.4317V13.6681C11.5185 13.4199 11.3175 13.2207 11.0705 13.2207ZM3.43345 24.9843H1.01544V18.5897H3.43345V24.9843Z" stroke="#DBA362" stroke-opacity="0.8" stroke-width="0.2"/>
</svg>
